<?xml version="1.0" standalone="no"?>
<!DOCTYPE svg PUBLIC "-//W3C//DTD SVG 20010904//EN"
 "http://www.w3.org/TR/2001/REC-SVG-20010904/DTD/svg10.dtd">
<svg version="1.0" xmlns="http://www.w3.org/2000/svg"
 width="512.000000pt" height="512.000000pt" viewBox="0 0 512.000000 512.000000"
 preserveAspectRatio="xMidYMid meet">
<metadata>
Created by potrace 1.11, written by Peter Selinger 2001-2013
</metadata>
<g transform="translate(0.000000,512.000000) scale(0.100000,-0.100000)"
fill="#000000" stroke="none">
<path d="M2246 4963 c-1 -1 -38 -5 -81 -8 -137 -9 -310 -47 -415 -92 -67 -28
-185 -87 -231 -115 l-46 -28 -56 20 c-41 15 -75 19 -130 16 -239 -11 -368
-242 -234 -418 l27 -35 -26 -58 c-15 -32 -31 -74 -36 -94 -5 -20 -11 -45 -14
-56 -13 -50 -5 -183 15 -246 32 -102 109 -203 199 -259 30 -19 40 -31 40 -50
-1 -14 2 -35 6 -47 28 -88 27 -138 -2 -165 -22 -21 -33 -23 -147 -23 -134 0
-159 -9 -193 -65 l-14 -25 20 23 c24 26 78 49 110 46 12 -1 29 -2 37 -3 15 -1
22 -31 7 -31 -14 0 -45 -65 -40 -81 4 -10 9 -6 16 12 9 23 64 78 80 80 4 0 30
2 58 3 60 3 105 31 124 75 12 30 10 74 -8 159 -8 36 -7 42 5 38 26 -10 118
-35 148 -40 41 -8 138 -19 150 -18 219 12 317 31 470 91 44 17 81 28 84 26 2
-3 -14 -24 -37 -47 -67 -69 -123 -130 -184 -199 -84 -95 -97 -110 -131 -153
-18 -21 -37 -43 -42 -50 -66 -74 -251 -337 -318 -451 -82 -142 -197 -400 -189
-427 1 -4 -8 -13 -21 -19 -35 -19 -158 -119 -207 -170 -51 -53 -90 -101 -131
-162 -15 -23 -45 -58 -66 -79 -55 -52 -147 -184 -197 -280 -91 -178 -125 -321
-120 -508 2 -69 5 -136 7 -150 10 -56 39 -156 48 -165 5 -5 9 -17 9 -27 0 -17
105 -227 119 -238 3 -3 18 -21 32 -40 172 -231 422 -314 749 -250 69 13 222
58 269 78 20 9 41 17 46 18 6 1 50 19 99 38 83 34 92 36 140 26 247 -51 366
-63 606 -64 199 0 408 14 580 40 19 2 53 7 75 10 38 5 156 25 220 39 105 22
308 79 365 102 8 3 17 7 20 7 41 8 218 94 309 151 414 256 539 637 341 1039
-27 56 -77 137 -109 181 -33 44 -63 91 -66 105 -9 35 -43 107 -73 154 -31 48
-209 226 -227 226 -2 0 -28 15 -57 33 -96 60 -249 128 -368 162 -85 25 -128
37 -143 40 -10 2 -26 6 -35 9 -9 3 -29 7 -45 10 -15 3 -35 7 -45 10 -9 3 -33
7 -52 10 -19 3 -46 8 -60 11 -14 3 -43 8 -65 11 -22 3 -56 8 -75 10 -46 7 -79
11 -180 19 -47 4 -105 8 -130 11 -25 2 -139 4 -255 4 -176 1 -207 3 -192 14 9
7 17 16 17 20 0 4 5 12 10 19 6 7 58 73 118 147 59 74 117 146 129 160 12 14
49 59 83 100 34 41 72 86 84 100 12 14 51 63 87 110 300 391 373 660 269 995
-111 357 -391 588 -753 621 -65 7 -177 10 -181 7z m358 -968 c-3 -41 -12 -86
-19 -94 -3 -3 -4 8 0 24 3 17 6 62 7 100 1 53 2 61 7 35 4 -19 6 -48 5 -65z"/>
<path d="M1033 3135 c0 -8 4 -12 9 -9 5 3 6 10 3 15 -9 13 -12 11 -12 -6z"/>
</g>
</svg>
